<svg width="40" height="40" viewBox="0 0 40 40" fill="none" xmlns="http://www.w3.org/2000/svg">
<path d="M34.4 20V38H5.6V20" stroke="#5376AE" stroke-width="3.6" stroke-linecap="round" stroke-linejoin="round"/>
<path d="M38 11H2V20H38V11Z" stroke="#5376AE" stroke-width="3.6" stroke-linecap="round" stroke-linejoin="round"/>
<path d="M20 38V11" stroke="#5376AE" stroke-width="3.6" stroke-linecap="round" stroke-linejoin="round"/>
<path d="M20 11H11.9C10.7065 11 9.56193 10.5259 8.71802 9.68198C7.87411 8.83807 7.4 7.69347 7.4 6.5C7.4 5.30653 7.87411 4.16193 8.71802 3.31802C9.56193 2.47411 10.7065 2 11.9 2C18.2 2 20 11 20 11Z" stroke="#5376AE" stroke-width="3.6" stroke-linecap="round" stroke-linejoin="round"/>
<path d="M20 11H28.1C29.2935 11 30.4381 10.5259 31.282 9.68198C32.1259 8.83807 32.6 7.69347 32.6 6.5C32.6 5.30653 32.1259 4.16193 31.282 3.31802C30.4381 2.47411 29.2935 2 28.1 2C21.8 2 20 11 20 11Z" stroke="#5376AE" stroke-width="3.6" stroke-linecap="round" stroke-linejoin="round"/>
</svg>
