<svg width="40" height="40" viewBox="0 0 40 40" fill="none" xmlns="http://www.w3.org/2000/svg">
<path d="M24.2114 8.86696C25.8882 9.19411 27.4292 10.0142 28.6372 11.2222C29.8453 12.4302 30.6653 13.9713 30.9925 15.6481M24.2114 2C27.6951 2.38702 30.9437 3.94708 33.4238 6.42405C35.9039 8.90102 37.468 12.1477 37.8594 15.6309M36.1427 29.3305V34.4807C36.1447 34.9588 36.0467 35.4321 35.8552 35.8701C35.6636 36.3082 35.3827 36.7015 35.0304 37.0247C34.6781 37.3479 34.2621 37.594 33.8092 37.7472C33.3563 37.9003 32.8764 37.9572 32.4002 37.9142C27.1175 37.3402 22.0431 35.535 17.5848 32.6438C13.4368 30.008 9.9201 26.4913 7.28432 22.3434C4.383 17.8647 2.57744 12.7657 2.01393 7.45923C1.97103 6.98449 2.02745 6.50603 2.1796 6.05429C2.33175 5.60256 2.57629 5.18745 2.89765 4.8354C3.21902 4.48335 3.61017 4.20208 4.04619 4.00948C4.48222 3.81688 4.95358 3.71719 5.43025 3.71674H10.5805C11.4136 3.70854 12.2213 4.00357 12.853 4.54684C13.4847 5.09011 13.8973 5.84455 14.0139 6.66953C14.2313 8.31771 14.6345 9.93602 15.2157 11.4936C15.4466 12.108 15.4966 12.7758 15.3597 13.4178C15.2228 14.0598 14.9047 14.6491 14.4431 15.1159L12.2629 17.2961C14.7067 21.5941 18.2654 25.1527 22.5633 27.5966L24.7436 25.4163C25.2103 24.9548 25.7996 24.6367 26.4416 24.4997C27.0836 24.3628 27.7514 24.4128 28.3659 24.6438C29.9234 25.225 31.5417 25.6281 33.1899 25.8455C34.0239 25.9632 34.7855 26.3832 35.3299 27.0258C35.8743 27.6683 36.1636 28.4886 36.1427 29.3305Z" stroke="#5376AE" stroke-width="3.43348" stroke-linecap="round" stroke-linejoin="round"/>
</svg>
